<mxfile host="Electron" agent="Mozilla/5.0 (Windows NT 10.0; Win64; x64) AppleWebKit/537.36 (KHTML, like Gecko) draw.io/26.0.16 Chrome/132.0.6834.196 Electron/34.2.0 Safari/537.36" version="26.0.16">
  <diagram name="Page-1" id="TrjUAWULlSiTVWDRQXzh">
    <mxGraphModel dx="1195" dy="1797" grid="1" gridSize="10" guides="1" tooltips="1" connect="1" arrows="1" fold="1" page="1" pageScale="1" pageWidth="850" pageHeight="1100" math="0" shadow="0">
      <root>
        <mxCell id="0" />
        <mxCell id="1" parent="0" />
        <mxCell id="TpsqY2S3x7ySg0jlKeKV-24" value="" style="group" vertex="1" connectable="0" parent="1">
          <mxGeometry x="110" y="220" width="80" height="120" as="geometry" />
        </mxCell>
        <mxCell id="TpsqY2S3x7ySg0jlKeKV-1" value="" style="sketch=0;outlineConnect=0;fontColor=#232F3E;gradientColor=none;fillColor=#C925D1;strokeColor=none;dashed=0;verticalLabelPosition=bottom;verticalAlign=top;align=center;html=1;fontSize=12;fontStyle=0;aspect=fixed;pointerEvents=1;shape=mxgraph.aws4.rds_sql_server_instance;" vertex="1" parent="TpsqY2S3x7ySg0jlKeKV-24">
          <mxGeometry width="78" height="78" as="geometry" />
        </mxCell>
        <mxCell id="TpsqY2S3x7ySg0jlKeKV-23" value="On-Prem SQL Database" style="text;html=1;align=center;verticalAlign=middle;whiteSpace=wrap;rounded=0;" vertex="1" parent="TpsqY2S3x7ySg0jlKeKV-24">
          <mxGeometry y="80" width="80" height="40" as="geometry" />
        </mxCell>
        <mxCell id="TpsqY2S3x7ySg0jlKeKV-26" value="" style="group" vertex="1" connectable="0" parent="1">
          <mxGeometry x="350" y="80" width="85" height="115" as="geometry" />
        </mxCell>
        <mxCell id="TpsqY2S3x7ySg0jlKeKV-2" value="" style="image;sketch=0;aspect=fixed;html=1;points=[];align=center;fontSize=12;image=img/lib/mscae/Data_Factory.svg;" vertex="1" parent="TpsqY2S3x7ySg0jlKeKV-26">
          <mxGeometry width="85" height="85" as="geometry" />
        </mxCell>
        <mxCell id="TpsqY2S3x7ySg0jlKeKV-25" value="Azure Data Factory" style="text;html=1;align=center;verticalAlign=middle;whiteSpace=wrap;rounded=0;" vertex="1" parent="TpsqY2S3x7ySg0jlKeKV-26">
          <mxGeometry y="85" width="85" height="30" as="geometry" />
        </mxCell>
        <mxCell id="TpsqY2S3x7ySg0jlKeKV-35" value="" style="group" vertex="1" connectable="0" parent="1">
          <mxGeometry x="1275" y="120" width="104.34999999999991" height="150" as="geometry" />
        </mxCell>
        <mxCell id="TpsqY2S3x7ySg0jlKeKV-18" value="" style="image;aspect=fixed;html=1;points=[];align=center;fontSize=12;image=img/lib/azure2/databases/Azure_Synapse_Analytics.svg;" vertex="1" parent="TpsqY2S3x7ySg0jlKeKV-35">
          <mxGeometry width="104.35" height="120" as="geometry" />
        </mxCell>
        <mxCell id="TpsqY2S3x7ySg0jlKeKV-33" value="Azure Synapse Analytics" style="text;html=1;align=center;verticalAlign=middle;whiteSpace=wrap;rounded=0;" vertex="1" parent="TpsqY2S3x7ySg0jlKeKV-35">
          <mxGeometry x="5" y="120" width="90" height="30" as="geometry" />
        </mxCell>
        <mxCell id="TpsqY2S3x7ySg0jlKeKV-37" value="" style="group" vertex="1" connectable="0" parent="1">
          <mxGeometry x="1520" y="130" width="75" height="130" as="geometry" />
        </mxCell>
        <mxCell id="TpsqY2S3x7ySg0jlKeKV-20" value="" style="image;aspect=fixed;html=1;points=[];align=center;fontSize=12;image=img/lib/azure2/power_platform/PowerBI.svg;" vertex="1" parent="TpsqY2S3x7ySg0jlKeKV-37">
          <mxGeometry width="75" height="100" as="geometry" />
        </mxCell>
        <mxCell id="TpsqY2S3x7ySg0jlKeKV-34" value="Power BI" style="text;html=1;align=center;verticalAlign=middle;whiteSpace=wrap;rounded=0;" vertex="1" parent="TpsqY2S3x7ySg0jlKeKV-37">
          <mxGeometry y="100" width="75" height="30" as="geometry" />
        </mxCell>
        <mxCell id="TpsqY2S3x7ySg0jlKeKV-47" value="" style="group" vertex="1" connectable="0" parent="1">
          <mxGeometry x="1260" y="380" width="330" height="220" as="geometry" />
        </mxCell>
        <mxCell id="TpsqY2S3x7ySg0jlKeKV-46" value="" style="group" vertex="1" connectable="0" parent="TpsqY2S3x7ySg0jlKeKV-47">
          <mxGeometry width="330" height="220" as="geometry" />
        </mxCell>
        <mxCell id="TpsqY2S3x7ySg0jlKeKV-44" value="" style="shape=document;whiteSpace=wrap;html=1;boundedLbl=1;fillColor=none;" vertex="1" parent="TpsqY2S3x7ySg0jlKeKV-46">
          <mxGeometry width="330" height="220" as="geometry" />
        </mxCell>
        <mxCell id="TpsqY2S3x7ySg0jlKeKV-45" value="Security and Governance" style="text;html=1;align=center;verticalAlign=middle;whiteSpace=wrap;rounded=0;" vertex="1" parent="TpsqY2S3x7ySg0jlKeKV-46">
          <mxGeometry x="10" width="150" height="30" as="geometry" />
        </mxCell>
        <mxCell id="TpsqY2S3x7ySg0jlKeKV-41" value="" style="group" vertex="1" connectable="0" parent="TpsqY2S3x7ySg0jlKeKV-47">
          <mxGeometry x="40" y="50" width="130" height="120.82999999999993" as="geometry" />
        </mxCell>
        <mxCell id="TpsqY2S3x7ySg0jlKeKV-21" value="" style="image;aspect=fixed;html=1;points=[];align=center;fontSize=12;image=img/lib/azure2/identity/Azure_Active_Directory.svg;" vertex="1" parent="TpsqY2S3x7ySg0jlKeKV-41">
          <mxGeometry x="10" width="99.35" height="90.83" as="geometry" />
        </mxCell>
        <mxCell id="TpsqY2S3x7ySg0jlKeKV-38" value="Azure Active Directory" style="text;html=1;align=center;verticalAlign=middle;whiteSpace=wrap;rounded=0;" vertex="1" parent="TpsqY2S3x7ySg0jlKeKV-41">
          <mxGeometry y="90.82999999999998" width="130" height="30" as="geometry" />
        </mxCell>
        <mxCell id="TpsqY2S3x7ySg0jlKeKV-43" value="" style="group" vertex="1" connectable="0" parent="TpsqY2S3x7ySg0jlKeKV-47">
          <mxGeometry x="210" y="62" width="68" height="98" as="geometry" />
        </mxCell>
        <mxCell id="TpsqY2S3x7ySg0jlKeKV-22" value="" style="image;aspect=fixed;html=1;points=[];align=center;fontSize=12;image=img/lib/azure2/security/Key_Vaults.svg;" vertex="1" parent="TpsqY2S3x7ySg0jlKeKV-43">
          <mxGeometry width="68" height="68" as="geometry" />
        </mxCell>
        <mxCell id="TpsqY2S3x7ySg0jlKeKV-42" value="Key Vaults" style="text;html=1;align=center;verticalAlign=middle;whiteSpace=wrap;rounded=0;" vertex="1" parent="TpsqY2S3x7ySg0jlKeKV-43">
          <mxGeometry x="4" y="68" width="60" height="30" as="geometry" />
        </mxCell>
        <mxCell id="TpsqY2S3x7ySg0jlKeKV-48" value="" style="group" vertex="1" connectable="0" parent="1">
          <mxGeometry x="580" width="630.8199999999999" height="410" as="geometry" />
        </mxCell>
        <mxCell id="TpsqY2S3x7ySg0jlKeKV-30" value="" style="group" vertex="1" connectable="0" parent="TpsqY2S3x7ySg0jlKeKV-48">
          <mxGeometry width="610" height="310" as="geometry" />
        </mxCell>
        <mxCell id="TpsqY2S3x7ySg0jlKeKV-28" value="" style="group" vertex="1" connectable="0" parent="TpsqY2S3x7ySg0jlKeKV-30">
          <mxGeometry width="82.78571428571428" height="130" as="geometry" />
        </mxCell>
        <mxCell id="TpsqY2S3x7ySg0jlKeKV-3" value="" style="image;sketch=0;aspect=fixed;html=1;points=[];align=center;fontSize=12;image=img/lib/mscae/Data_Lake.svg;" vertex="1" parent="TpsqY2S3x7ySg0jlKeKV-28">
          <mxGeometry width="76" height="100" as="geometry" />
        </mxCell>
        <mxCell id="TpsqY2S3x7ySg0jlKeKV-27" value="Azure Data Lake" style="text;html=1;align=center;verticalAlign=middle;whiteSpace=wrap;rounded=0;" vertex="1" parent="TpsqY2S3x7ySg0jlKeKV-28">
          <mxGeometry x="8.714285714285714" y="100" width="65.35714285714285" height="30" as="geometry" />
        </mxCell>
        <mxCell id="TpsqY2S3x7ySg0jlKeKV-29" value="" style="group" vertex="1" connectable="0" parent="TpsqY2S3x7ySg0jlKeKV-30">
          <mxGeometry x="141.60714285714283" y="80" width="468.3928571428571" height="230" as="geometry" />
        </mxCell>
        <mxCell id="TpsqY2S3x7ySg0jlKeKV-12" value="" style="group" vertex="1" connectable="0" parent="TpsqY2S3x7ySg0jlKeKV-29">
          <mxGeometry width="468.3928571428571" height="230" as="geometry" />
        </mxCell>
        <mxCell id="TpsqY2S3x7ySg0jlKeKV-16" value="" style="rounded=1;whiteSpace=wrap;html=1;fillColor=none;" vertex="1" parent="TpsqY2S3x7ySg0jlKeKV-12">
          <mxGeometry x="-65.35714285714285" y="-50" width="533.75" height="280" as="geometry" />
        </mxCell>
        <mxCell id="TpsqY2S3x7ySg0jlKeKV-4" value="" style="rounded=1;arcSize=10;dashed=0;fillColor=none;gradientColor=none;strokeWidth=2;" vertex="1" parent="TpsqY2S3x7ySg0jlKeKV-12">
          <mxGeometry y="20" width="100" height="150" as="geometry" />
        </mxCell>
        <mxCell id="TpsqY2S3x7ySg0jlKeKV-5" value="Bronze" style="dashed=0;html=1;shape=mxgraph.aws3.instance;fillColor=#FFD966;gradientColor=none;dashed=0;" vertex="1" parent="TpsqY2S3x7ySg0jlKeKV-12">
          <mxGeometry x="16.33928571428571" width="65.35714285714285" height="50" as="geometry" />
        </mxCell>
        <mxCell id="TpsqY2S3x7ySg0jlKeKV-13" value="" style="group" vertex="1" connectable="0" parent="TpsqY2S3x7ySg0jlKeKV-29">
          <mxGeometry x="152.5" width="119.82142857142856" height="170" as="geometry" />
        </mxCell>
        <mxCell id="TpsqY2S3x7ySg0jlKeKV-7" value="" style="rounded=1;arcSize=10;dashed=0;fillColor=none;gradientColor=none;strokeWidth=2;" vertex="1" parent="TpsqY2S3x7ySg0jlKeKV-13">
          <mxGeometry y="20" width="100" height="150" as="geometry" />
        </mxCell>
        <mxCell id="TpsqY2S3x7ySg0jlKeKV-8" value="Silver" style="dashed=0;html=1;shape=mxgraph.aws3.instance;fillColor=#E6E6E6;gradientColor=none;dashed=0;" vertex="1" parent="TpsqY2S3x7ySg0jlKeKV-13">
          <mxGeometry x="18.434065934065934" width="65.35714285714285" height="50" as="geometry" />
        </mxCell>
        <mxCell id="TpsqY2S3x7ySg0jlKeKV-15" value="" style="group" vertex="1" connectable="0" parent="TpsqY2S3x7ySg0jlKeKV-29">
          <mxGeometry x="305" width="119.82142857142856" height="171.88" as="geometry" />
        </mxCell>
        <mxCell id="TpsqY2S3x7ySg0jlKeKV-10" value="" style="rounded=1;arcSize=10;dashed=0;fillColor=none;gradientColor=none;strokeWidth=2;" vertex="1" parent="TpsqY2S3x7ySg0jlKeKV-15">
          <mxGeometry x="20" y="21.88" width="100" height="150" as="geometry" />
        </mxCell>
        <mxCell id="TpsqY2S3x7ySg0jlKeKV-11" value="Gold" style="dashed=0;html=1;shape=mxgraph.aws3.instance;fillColor=#FF9933;gradientColor=none;dashed=0;" vertex="1" parent="TpsqY2S3x7ySg0jlKeKV-15">
          <mxGeometry x="21.785714285714285" width="65.35714285714285" height="50" as="geometry" />
        </mxCell>
        <mxCell id="TpsqY2S3x7ySg0jlKeKV-52" value="" style="edgeStyle=orthogonalEdgeStyle;rounded=0;orthogonalLoop=1;jettySize=auto;html=1;" edge="1" parent="TpsqY2S3x7ySg0jlKeKV-29" source="TpsqY2S3x7ySg0jlKeKV-4" target="TpsqY2S3x7ySg0jlKeKV-7">
          <mxGeometry relative="1" as="geometry" />
        </mxCell>
        <mxCell id="TpsqY2S3x7ySg0jlKeKV-54" value="" style="edgeStyle=orthogonalEdgeStyle;rounded=0;orthogonalLoop=1;jettySize=auto;html=1;" edge="1" parent="TpsqY2S3x7ySg0jlKeKV-29" source="TpsqY2S3x7ySg0jlKeKV-7" target="TpsqY2S3x7ySg0jlKeKV-10">
          <mxGeometry relative="1" as="geometry" />
        </mxCell>
        <mxCell id="TpsqY2S3x7ySg0jlKeKV-32" value="" style="group" vertex="1" connectable="0" parent="TpsqY2S3x7ySg0jlKeKV-48">
          <mxGeometry x="520" y="260" width="110.81999999999994" height="150" as="geometry" />
        </mxCell>
        <mxCell id="TpsqY2S3x7ySg0jlKeKV-17" value="" style="image;aspect=fixed;html=1;points=[];align=center;fontSize=12;image=img/lib/azure2/analytics/Azure_Databricks.svg;" vertex="1" parent="TpsqY2S3x7ySg0jlKeKV-32">
          <mxGeometry width="110.82" height="120" as="geometry" />
        </mxCell>
        <mxCell id="TpsqY2S3x7ySg0jlKeKV-31" value="Azure Databricks" style="text;html=1;align=center;verticalAlign=middle;whiteSpace=wrap;rounded=0;" vertex="1" parent="TpsqY2S3x7ySg0jlKeKV-32">
          <mxGeometry y="120" width="110" height="30" as="geometry" />
        </mxCell>
        <mxCell id="TpsqY2S3x7ySg0jlKeKV-50" style="edgeStyle=orthogonalEdgeStyle;rounded=0;orthogonalLoop=1;jettySize=auto;html=1;entryX=0;entryY=0.5;entryDx=0;entryDy=0;entryPerimeter=0;" edge="1" parent="1" source="TpsqY2S3x7ySg0jlKeKV-1" target="TpsqY2S3x7ySg0jlKeKV-2">
          <mxGeometry relative="1" as="geometry" />
        </mxCell>
        <mxCell id="TpsqY2S3x7ySg0jlKeKV-51" style="edgeStyle=orthogonalEdgeStyle;rounded=0;orthogonalLoop=1;jettySize=auto;html=1;" edge="1" parent="1" source="TpsqY2S3x7ySg0jlKeKV-2" target="TpsqY2S3x7ySg0jlKeKV-16">
          <mxGeometry relative="1" as="geometry" />
        </mxCell>
        <mxCell id="TpsqY2S3x7ySg0jlKeKV-57" style="edgeStyle=orthogonalEdgeStyle;rounded=0;orthogonalLoop=1;jettySize=auto;html=1;entryX=0.042;entryY=0.421;entryDx=0;entryDy=0;entryPerimeter=0;" edge="1" parent="1" source="TpsqY2S3x7ySg0jlKeKV-16" target="TpsqY2S3x7ySg0jlKeKV-18">
          <mxGeometry relative="1" as="geometry" />
        </mxCell>
        <mxCell id="TpsqY2S3x7ySg0jlKeKV-58" style="edgeStyle=orthogonalEdgeStyle;rounded=0;orthogonalLoop=1;jettySize=auto;html=1;entryX=0;entryY=0.5;entryDx=0;entryDy=0;entryPerimeter=0;" edge="1" parent="1" source="TpsqY2S3x7ySg0jlKeKV-18" target="TpsqY2S3x7ySg0jlKeKV-20">
          <mxGeometry relative="1" as="geometry" />
        </mxCell>
        <mxCell id="TpsqY2S3x7ySg0jlKeKV-59" value="&lt;b&gt;&lt;font style=&quot;font-size: 24px;&quot;&gt;Azure Data Pipeline Process&lt;/font&gt;&lt;/b&gt;" style="text;html=1;align=center;verticalAlign=middle;whiteSpace=wrap;rounded=0;" vertex="1" parent="1">
          <mxGeometry x="680.41" y="-180" width="430" height="80" as="geometry" />
        </mxCell>
      </root>
    </mxGraphModel>
  </diagram>
</mxfile>
